<svg width="25" height="24" viewBox="0 0 25 24" fill="none" xmlns="http://www.w3.org/2000/svg">
<path d="M9.81002 6.71002C9.71732 6.80254 9.64377 6.91242 9.59359 7.0334C9.54341 7.15437 9.51758 7.28405 9.51758 7.41502C9.51758 7.54599 9.54341 7.67567 9.59359 7.79665C9.64377 7.91762 9.71732 8.02751 9.81002 8.12002L13.69 12L9.81002 15.88C9.62304 16.067 9.518 16.3206 9.518 16.585C9.518 16.8494 9.62304 17.103 9.81002 17.29C9.997 17.477 10.2506 17.582 10.515 17.582C10.7794 17.582 11.033 17.477 11.22 17.29L15.81 12.7C15.9027 12.6075 15.9763 12.4976 16.0265 12.3766C16.0766 12.2557 16.1025 12.126 16.1025 11.995C16.1025 11.8641 16.0766 11.7344 16.0265 11.6134C15.9763 11.4924 15.9027 11.3825 15.81 11.29L11.22 6.70002C10.84 6.32002 10.2 6.32002 9.81002 6.71002Z" fill="white"/>
</svg>
