<svg width="336" height="68" viewBox="0 0 336 68" fill="none" xmlns="http://www.w3.org/2000/svg">
<mask id="mask0_308_2404" style="mask-type:luminance" maskUnits="userSpaceOnUse" x="87" y="11" width="34" height="33">
<path d="M87.959 27.4919C87.959 36.6003 95.3401 43.9846 104.451 43.9846C113.562 43.9846 120.944 36.6037 120.944 27.4919C120.944 18.3801 113.562 11 104.451 11C95.3401 11 87.959 18.3843 87.959 27.4919Z" fill="white"/>
</mask>
<g mask="url(#mask0_308_2404)">
<path d="M113.57 30.1716C113.57 40.8325 106.618 49.4757 98.0427 49.4757C89.4673 49.4757 82.5166 40.8325 82.5166 30.1716C82.5166 19.5106 89.4682 10.8683 98.0427 10.8683C106.617 10.8683 113.57 19.5106 113.57 30.1716Z" fill="white"/>
<path d="M104.447 10.9998C103.999 10.9998 103.554 11.0188 103.115 11.0537C102.675 11.0188 102.231 10.9998 101.783 10.9998C98.6281 11.0001 95.5397 11.9049 92.8836 13.6071C90.2276 15.3092 88.1154 17.7372 86.7974 20.6033C86.7974 20.6033 89.2273 18.151 90.2051 18.6486C92.388 19.7516 94.0417 21.737 94.4837 23.4047C94.5061 23.4877 94.8304 23.4454 95.3587 23.3276C95.7916 23.7257 96.1051 24.1636 96.2345 24.6363C96.3008 24.8851 99.3627 23.6635 102.46 22.6816C102.902 21.5255 104.107 20.6746 105.354 20.6746C107.074 20.6746 108.347 22.0845 108.422 23.7431C108.498 25.4018 106.96 26.8116 105.354 26.8116C104.697 26.815 104.057 26.599 103.536 26.1979C101.162 27.8425 97.9047 29.4538 96.0769 30.736C96.1144 32.0031 95.8236 33.2584 95.2326 34.38C95.1635 34.5895 95.0864 34.7944 95.0012 34.9945C95.2168 36.591 95.4922 38.1012 95.9135 39.3957C95.9958 39.4305 96.0742 39.4739 96.1474 39.5251C97.194 40.2715 98.3319 40.8379 99.4772 41.401C100.218 42.5936 101.239 43.3765 102.683 43.5316C103.129 43.5797 103.898 43.4884 104.029 43.5017C104.161 43.515 104.303 43.9893 104.444 43.9893C113.553 43.9893 120.937 36.6084 120.937 27.4975C120.937 18.3865 113.556 11.0047 104.444 11.0047" fill="#022260"/>
<path d="M105.748 10.7601C105.311 10.7601 104.879 10.7784 104.451 10.8124C104.023 10.7784 103.591 10.7601 103.155 10.7601C100.085 10.7597 97.0788 11.6397 94.4936 13.2959C91.9083 14.952 89.8523 17.3148 88.5693 20.1041C88.5693 20.1041 89.5106 18.5234 90.0912 18.9936C90.7455 19.5244 91.074 22.1268 91.5774 22.3814C93.7013 23.4595 95.6229 21.2038 96.0558 22.8259C96.0765 22.9089 93.907 23.2124 96.9067 22.7513C97.328 23.1394 97.6365 23.5649 97.7593 24.0251C97.8488 24.3643 103.585 21.9245 107.203 21.2054C107.278 21.2569 107.444 21.3199 107.39 21.3829C107.171 21.6317 105.542 21.7976 105.181 22.121C102.417 24.609 97.3852 29.1785 96.3453 31.1374C96.3577 31.2278 96.3693 31.3182 96.3817 31.4077C96.395 31.7569 95.3733 32.2512 95.3434 32.5879C95.5831 34.7441 95.5922 37.8126 96.1528 39.516C96.2358 39.55 97.7203 40.8371 97.7916 40.8877C98.8101 41.6117 99.6635 41.8929 100.777 42.4402C101.498 43.6013 102.63 42.2553 104.036 42.4062C104.469 42.4527 105.208 42.8333 105.337 42.8466C105.475 42.8553 105.613 42.857 105.752 42.8516C114.615 42.8516 121.8 35.6663 121.8 26.8034C121.8 17.9404 114.615 10.756 105.752 10.756" fill="#022260"/>
<path d="M115.742 18.921C118.214 23.814 118.23 28.5959 116.916 32.6048C114.372 39.0337 108.54 42.0748 103.537 42.4281C103.968 42.7093 104.381 43.0186 104.795 43.3205C105.027 43.4864 105.258 43.6589 105.489 43.828L105.682 43.8164L105.715 43.8106C104.685 44.1417 103.628 44.3804 102.555 44.5238L103.426 46.4147C103.472 46.564 103.513 46.7124 103.553 46.8617C104.458 47.6736 104.932 48.901 104.635 50.1914C104.594 50.3632 104.538 50.5313 104.469 50.694C110.178 49.2137 114.926 45.4004 117.514 39.9286C120.97 32.6231 120.185 25.5863 115.734 18.921" fill="#022260"/>
<path d="M124.193 28.2177C125.914 34.023 124.922 40.0289 121.656 44.9393C121.598 44.7732 121.526 44.6123 121.441 44.4583C120.801 43.2973 119.629 42.7001 118.414 42.6993C118.285 42.6164 118.154 42.5335 118.021 42.4505L116.113 41.6212C118.058 39.3513 119.609 36.3965 120.169 32.9871C121.234 26.4819 118.313 17.4581 108.851 13.756C116.613 15.7522 121.893 20.4735 124.193 28.2185" fill="#022260"/>
<path d="M99.6151 11.3879C95.7939 12.2095 92.3602 14.2925 89.8662 17.3018C90.2429 17.6194 90.5493 18.012 90.7656 18.4547C90.982 18.8974 91.1036 19.3803 91.1227 19.8727C91.1467 20.5025 90.9679 21.1235 90.6126 21.6441C90.7097 21.7712 90.7976 21.905 90.8755 22.0447C90.9958 22.1085 91.116 22.1732 91.2355 22.2429L92.686 23.3675C93.6832 20.6828 95.396 18.3222 97.6388 16.5413C102.219 12.9362 110.451 11.3415 117.36 17.087C112.502 11.9311 106.594 9.8578 99.6151 11.3879Z" fill="#022260"/>
<path d="M106.298 43.884C114.545 42.9734 120.96 35.9819 120.96 27.4921C120.96 18.3836 113.576 10.9998 104.467 10.9998C102.738 10.9998 101.07 11.266 99.5034 11.7599C100.104 11.6935 100.715 11.6594 101.334 11.6594C110.442 11.6594 117.826 19.0433 117.826 28.1518C117.826 35.5305 112.98 41.7774 106.298 43.884Z" fill="url(#paint0_linear_308_2404)"/>
<path d="M112.756 21.1166C111.713 20.4042 110.197 20.4664 108.884 20.7136C108.435 21.2689 107.83 21.6764 107.147 21.8829C104.819 22.6127 102.35 22.7421 99.9384 23.0357C98.6671 23.2247 97.4081 23.4959 96.2064 23.9637C95.5015 24.2664 94.8247 24.5284 94.0128 24.5658C93.3744 24.5901 92.74 24.4544 92.1675 24.171C92.0412 25.2959 91.6735 26.3802 91.0893 27.3498C90.7083 27.9859 90.124 28.475 89.4307 28.7381C91.013 39.3708 100.511 47.0752 111.273 46.1721C112.175 46.1034 113.071 45.9701 113.954 45.7732L112.924 45.8163C111.763 45.8262 110.417 45.7218 108.095 45.264C105.773 44.8062 103.202 43.4129 100.49 41.4209C97.778 39.4289 96.252 37.5571 95.9974 35.5742C95.6657 32.6865 104.113 26.4964 109.006 24.7374C111.85 23.7157 114.017 24.8826 114.017 24.8826C114.017 24.8826 114.265 24.2523 114.308 23.7273C114.35 23.2023 114.391 22.1972 112.753 21.1166" fill="#E5E5E5"/>
<path d="M96.9532 21.0679C96.9988 22.739 96.9648 24.41 96.998 26.0811C97.0104 26.7288 97.0552 27.3749 97.0983 28.0209C97.3314 27.8086 97.5752 27.6063 97.8298 27.3973C99.0862 26.3847 100.567 25.6963 101.981 24.9325C101.401 23.4978 101.943 21.8499 103.219 20.9236L103.295 20.8722C103.195 20.629 103.155 20.3654 103.177 20.1034C103.608 20.1994 104.051 20.223 104.489 20.173C105.085 20.0851 106.03 19.726 106.557 19.4731C107.084 19.2202 108.084 18.9407 108.084 18.9407C108.084 18.9407 107.968 18.7391 107.388 18.3427C106.815 17.9894 105.628 17.5963 103.964 17.4894C102.299 17.3824 99.272 18.0508 97.3828 19.075C97.2169 19.1646 97.056 19.2633 96.8984 19.3686C96.925 19.9383 96.9382 20.5081 96.9532 21.0679Z" fill="#E5E5E5"/>
<path d="M92.9596 33.8434C93.0881 32.6666 93.1254 31.4832 93.1428 30.2989C93.152 29.6612 93.1569 29.0234 93.1686 28.3849C93.1802 27.7463 93.2258 27.111 93.1851 26.4774C93.0757 25.6663 93.1644 24.9374 93.5592 24.1901C93.8635 23.6146 94.3761 23.195 94.9516 22.9072C95.0989 21.5157 95.4921 20.1614 96.1127 18.9074C95.4593 19.4371 94.8614 20.0317 94.328 20.6821L94.6241 19.8404C94.8115 19.3527 95.2145 18.1137 95.1897 16.8996C95.1814 15.9873 94.0949 14.269 93.4812 13.3053C90.9321 17.0449 89.7159 21.5337 90.0287 26.0487C90.2034 29.2404 91.117 32.3479 92.6975 35.1264C92.8003 34.7012 92.8877 34.2736 92.9596 33.8434Z" fill="#E5E5E5"/>
<path d="M116.875 39.8958L115.97 40.3934C114.933 40.9183 113.681 41.4209 111.397 42.0404C109.113 42.6599 106.194 42.514 102.877 41.9683C101.504 41.7408 100.219 41.1442 99.1599 40.2424C96.6262 38.0315 95.252 36.0378 95.1666 34.0433C95.0837 31.1406 104.012 25.6762 109.036 24.3319C111.956 23.5515 114.017 24.8959 114.017 24.8959C114.017 24.8959 114.317 24.2888 114.403 23.7688C114.489 23.2488 114.618 22.2511 113.072 21.037C111.526 19.7798 108.649 20.3437 107.275 20.6472C105.858 20.9508 104.613 21.1241 103.709 20.8206C102.764 20.517 103.064 19.39 103.064 19.39C103.477 19.5457 103.914 19.6315 104.355 19.6438C104.956 19.6438 105.944 19.4273 106.502 19.254C107.06 19.0806 108.091 18.9504 108.091 18.9504C108.091 18.9504 108.008 18.734 107.49 18.2571C106.975 17.8234 105.858 17.2619 104.226 16.9128C102.595 16.5637 99.5032 16.7826 97.4854 17.5199C95.4676 18.2571 93.7534 20.2077 93.7534 20.2077L94.0967 19.3842C94.3115 18.9073 94.7843 17.6932 94.8274 16.4816C94.8697 15.5693 93.8819 13.7937 93.3246 12.7969C90.569 16.3871 89.1017 20.8 89.1588 25.3254C89.1588 31.1307 89.9625 35.245 93.7924 38.9802C93.3404 39.5234 94.4028 41.1365 93.8305 41.5221C96.1345 42.8748 98.6799 43.766 101.324 44.1461C103.902 45.2895 106.692 45.8786 109.512 45.8752C110.416 45.8824 111.321 45.8244 112.217 45.7019L111.18 45.6596C110.019 45.5766 108.692 45.356 106.414 44.705C106.041 44.5978 105.674 44.4704 105.314 44.3235C108.614 44.1439 111.819 43.1545 114.646 41.4425C115.424 40.9808 116.168 40.4639 116.872 39.8958" fill="white"/>
</g>
<path fill-rule="evenodd" clip-rule="evenodd" d="M18.92 22.1237L18.2471 21.7256C17.7985 21.4602 17.2048 21.1683 16.4659 20.8498C15.7271 20.5048 14.9222 20.1996 14.0514 19.9342C13.1806 19.6688 12.3231 19.5361 11.4786 19.5361C10.819 19.5361 10.278 19.6423 9.8558 19.8546C9.4336 20.0669 9.2225 20.4252 9.2225 20.9294C9.2225 21.4072 9.4336 21.792 9.8558 22.0839C10.278 22.3758 10.8717 22.6412 11.637 22.8801C12.4286 23.1189 13.3654 23.4109 14.4473 23.7559C16.1888 24.2867 17.6929 24.8971 18.9596 25.5871C20.2262 26.2771 21.2025 27.1662 21.8886 28.2543C22.5747 29.3159 22.9177 30.7357 22.9177 32.5139C22.9177 34.2124 22.6142 35.6455 22.0073 36.8132C21.4004 37.9544 20.5824 38.87 19.5533 39.5601C18.5242 40.2501 17.3763 40.7543 16.1097 41.0728C14.8431 41.3647 13.5501 41.5107 12.2307 41.5107C10.8849 41.5107 9.47318 41.378 7.99547 41.1126C6.54415 40.8207 5.13241 40.4359 3.76025 39.9582C2.38809 39.4539 1.13467 38.87 0 38.2066L3.32485 31.3992L4.11648 31.8769C4.64423 32.1954 5.34351 32.5537 6.2143 32.9518C7.08509 33.3499 8.04825 33.7081 9.10375 34.0266C10.1856 34.3451 11.2675 34.5043 12.3494 34.5043C13.1938 34.5043 13.7744 34.3982 14.091 34.1859C14.4341 33.947 14.6056 33.6418 14.6056 33.2702C14.6056 32.7129 14.3153 32.2883 13.7348 31.9964C13.1543 31.6779 12.389 31.386 11.4391 31.1206C10.5155 30.8286 9.48637 30.4969 8.3517 30.1253C6.71567 29.568 5.36989 28.9443 4.31439 28.2543C3.25888 27.5377 2.48044 26.7018 1.97908 25.7463C1.47771 24.7644 1.22703 23.5834 1.22703 22.2033C1.22703 20.1067 1.7152 18.3551 2.69154 16.9485C3.66789 15.542 4.94769 14.4804 6.53095 13.7638C8.1406 13.0207 9.869 12.6492 11.7161 12.6492C13.0883 12.6492 14.4077 12.8217 15.6743 13.1667C16.9673 13.4852 18.1679 13.8832 19.2762 14.361C20.4109 14.8387 21.4004 15.2898 22.2448 15.7145L18.92 22.1237Z" fill="#022260"/>
<path fill-rule="evenodd" clip-rule="evenodd" d="M24.2676 12.8877V41.1521H31.986V12.8877H24.2676Z" fill="#022260"/>
<path fill-rule="evenodd" clip-rule="evenodd" d="M41.5275 41.3281V27.4348L52.6895 41.3281H58.8246V13.0637H51.1062V27.4348L39.8255 13.0637H33.8091V41.3281H41.5275Z" fill="#022260"/>
<path fill-rule="evenodd" clip-rule="evenodd" d="M60.6094 13.0637V41.3281H71.4151C74.265 41.3281 76.7454 40.7443 78.8565 39.5765C80.9939 38.4088 82.6431 36.7634 83.8042 34.6402C84.9916 32.5171 85.5853 30.0224 85.5853 27.1561C85.5853 24.5553 85.0444 22.1933 83.9625 20.0701C82.907 17.9204 81.3237 16.2219 79.2127 14.9746C77.1281 13.7007 74.5289 13.0637 71.4151 13.0637H60.6094ZM76.9961 23.3344C77.4975 24.4226 77.7482 25.6965 77.7482 27.1561C77.7482 28.5627 77.4975 29.8366 76.9961 30.9778C76.4948 32.0924 75.7691 32.9682 74.8191 33.6052C73.8956 34.2421 72.7609 34.5606 71.4151 34.5606H68.3278V19.8313H71.4151C72.7345 19.8313 73.8692 20.1365 74.8191 20.7469C75.7691 21.3573 76.4948 22.2198 76.9961 23.3344Z" fill="#022260"/>
<path fill-rule="evenodd" clip-rule="evenodd" d="M131.136 41.2362V27.4546L142.298 41.2362H148.433V13.1991H140.715V27.4546L129.434 13.1991H123.417V41.2362H131.136Z" fill="#E2100E"/>
<path fill-rule="evenodd" clip-rule="evenodd" d="M170.246 34.5227V41.2358H150.217V13.199H169.889V19.912H157.936V23.8608H168.148V30.1H157.936V34.5227H170.246Z" fill="#E2100E"/>
<path d="M190.12 13.1991H183.111L187.732 26.5857L185.813 32.3116L179.782 13.1991H171.52L182.014 41.236H188.632L192.666 31.2059L196.738 41.236H203.356L213.85 13.1991H205.549L199.557 32.3116L197.56 26.5857L202.259 13.1991H195.25L192.666 21.8471L190.12 13.1991Z" fill="#E2100E"/>
<path fill-rule="evenodd" clip-rule="evenodd" d="M230.983 22.214L230.311 21.8121C229.862 21.5441 229.268 21.2494 228.529 20.9279C227.791 20.5796 226.986 20.2715 226.115 20.0036C225.244 19.7357 224.387 19.6017 223.542 19.6017C222.882 19.6017 222.341 19.7089 221.919 19.9232C221.497 20.1376 221.286 20.4993 221.286 21.0083C221.286 21.4906 221.497 21.879 221.919 22.1738C222.341 22.4685 222.935 22.7364 223.7 22.9775C224.492 23.2187 225.429 23.5134 226.511 23.8617C228.252 24.3975 229.756 25.0137 231.023 25.7103C232.29 26.4069 233.266 27.3045 233.952 28.4029C234.638 29.4746 234.981 30.908 234.981 32.7031C234.981 34.4178 234.678 35.8645 234.071 37.0434C233.464 38.1954 232.646 39.1198 231.617 39.8164C230.588 40.513 229.44 41.022 228.173 41.3435C226.907 41.6382 225.614 41.7856 224.294 41.7856C222.948 41.7856 221.537 41.6516 220.059 41.3837C218.608 41.089 217.196 40.7005 215.824 40.2182C214.452 39.7092 213.198 39.1198 212.063 38.45L215.388 31.5778L216.18 32.06C216.708 32.3816 217.407 32.7432 218.278 33.1451C219.149 33.547 220.112 33.9087 221.167 34.2302C222.249 34.5517 223.331 34.7125 224.413 34.7125C225.257 34.7125 225.838 34.6053 226.155 34.391C226.498 34.1498 226.669 33.8417 226.669 33.4666C226.669 32.904 226.379 32.4753 225.798 32.1806C225.218 31.8591 224.452 31.5644 223.503 31.2965C222.579 31.0018 221.55 30.6669 220.415 30.2918C218.779 29.7291 217.433 29.0995 216.378 28.4029C215.322 27.6795 214.544 26.8356 214.043 25.8711C213.541 24.8798 213.291 23.6875 213.291 22.2943C213.291 20.1778 213.779 18.4095 214.755 16.9895C215.731 15.5695 217.011 14.4978 218.594 13.7744C220.204 13.0243 221.932 12.6492 223.78 12.6492C225.152 12.6492 226.471 12.8233 227.738 13.1716C229.031 13.4931 230.231 13.895 231.34 14.3773C232.474 14.8595 233.464 15.315 234.308 15.7437L230.983 22.214Z" fill="#E2100E"/>
<path d="M224.981 54.5828C224.981 54.9786 224.867 55.3172 224.638 55.5987C224.419 55.8802 224.119 56.0957 223.741 56.2452C223.363 56.3947 222.95 56.4695 222.501 56.4695H218.675V49.1469H222.818C223.187 49.1469 223.508 49.2392 223.781 49.424C224.053 49.6087 224.26 49.8462 224.401 50.1364C224.55 50.4179 224.625 50.7126 224.625 51.0204C224.625 51.3723 224.528 51.7065 224.335 52.0232C224.141 52.331 223.86 52.5597 223.491 52.7092C223.948 52.8324 224.309 53.0567 224.572 53.3821C224.845 53.7076 224.981 54.1078 224.981 54.5828ZM223.649 54.3321C223.649 54.1386 223.601 53.967 223.504 53.8175C223.407 53.6592 223.279 53.5316 223.121 53.4349C222.963 53.3381 222.782 53.2898 222.58 53.2898H219.981V55.348H222.501C222.712 55.348 222.901 55.304 223.068 55.2161C223.244 55.1193 223.385 54.9962 223.491 54.8466C223.596 54.6883 223.649 54.5168 223.649 54.3321ZM219.981 50.2948V52.2474H222.264C222.466 52.2474 222.646 52.2079 222.804 52.1287C222.963 52.0495 223.09 51.9352 223.187 51.7857C223.284 51.6361 223.332 51.4646 223.332 51.2711C223.332 51.0688 223.288 50.8973 223.2 50.7565C223.112 50.607 222.994 50.4927 222.844 50.4135C222.695 50.3343 222.523 50.2948 222.33 50.2948H219.981Z" fill="#022260"/>
<path d="M232.012 55.3084V56.4695H226.457V49.1469H231.906V50.308H227.763V52.2079H231.352V53.2766H227.763V55.3084H232.012Z" fill="#022260"/>
<path d="M234.06 49.1469L236.263 52.7356L238.493 49.1469H239.931L236.923 53.8835V56.4695H235.617V53.8703L232.635 49.1469H234.06Z" fill="#022260"/>
<path d="M243.852 56.5223C243.289 56.5223 242.774 56.4211 242.308 56.2188C241.842 56.0077 241.437 55.7262 241.094 55.3744C240.751 55.0226 240.487 54.6267 240.303 54.1869C240.127 53.7384 240.039 53.2766 240.039 52.8016C240.039 52.3178 240.135 51.856 240.329 51.4162C240.522 50.9676 240.791 50.5718 241.134 50.2288C241.477 49.8857 241.881 49.6131 242.348 49.4108C242.823 49.2085 243.333 49.1073 243.878 49.1073C244.45 49.1073 244.969 49.2173 245.435 49.4372C245.901 49.6483 246.301 49.9297 246.636 50.2816C246.97 50.6334 247.225 51.0336 247.401 51.4822C247.586 51.922 247.678 52.3706 247.678 52.828C247.678 53.3117 247.581 53.7779 247.388 54.2265C247.203 54.6663 246.939 55.0621 246.596 55.414C246.253 55.757 245.848 56.0297 245.382 56.232C244.925 56.4255 244.415 56.5223 243.852 56.5223ZM241.371 52.8148C241.371 53.1402 241.428 53.4569 241.543 53.7647C241.657 54.0638 241.824 54.3365 242.044 54.5828C242.264 54.8202 242.528 55.0094 242.836 55.1501C243.152 55.282 243.5 55.348 243.878 55.348C244.265 55.348 244.608 55.2776 244.907 55.1369C245.215 54.9874 245.474 54.7895 245.686 54.5432C245.897 54.2969 246.059 54.0242 246.174 53.7252C246.288 53.4261 246.345 53.1182 246.345 52.8016C246.345 52.4761 246.284 52.1639 246.161 51.8648C246.046 51.557 245.879 51.2887 245.659 51.06C245.448 50.8225 245.189 50.6334 244.881 50.4927C244.573 50.3519 244.234 50.2816 243.865 50.2816C243.469 50.2816 243.117 50.3563 242.809 50.5059C242.501 50.6466 242.242 50.8401 242.031 51.0864C241.82 51.3239 241.657 51.5922 241.543 51.8912C241.428 52.1903 241.371 52.4981 241.371 52.8148Z" fill="#022260"/>
<path d="M250.44 51.5878V56.4695H249.134V49.1469H250.15L254.728 54.1342V49.1469H256.048V56.4695H254.966L250.44 51.5878Z" fill="#022260"/>
<path d="M257.999 56.4695V49.1469H260.875C261.746 49.1469 262.471 49.314 263.052 49.6483C263.641 49.9737 264.081 50.4135 264.371 50.9676C264.67 51.513 264.82 52.1199 264.82 52.7884C264.82 53.5272 264.657 54.1737 264.332 54.7279C264.006 55.282 263.549 55.713 262.96 56.0209C262.37 56.3199 261.675 56.4695 260.875 56.4695H257.999ZM263.487 52.8016C263.487 52.3002 263.382 51.8648 263.171 51.4954C262.968 51.126 262.674 50.8357 262.287 50.6246C261.908 50.4135 261.438 50.308 260.875 50.308H259.305V55.3084H260.875C261.438 55.3084 261.913 55.2029 262.3 54.9918C262.687 54.7719 262.982 54.4728 263.184 54.0946C263.386 53.7076 263.487 53.2766 263.487 52.8016Z" fill="#022260"/>
<path d="M276.206 49.1469V56.4695H274.886V53.303H270.862V56.4695H269.556V49.1469H270.862V52.1419H274.886V49.1469H276.206Z" fill="#022260"/>
<path d="M283.718 55.3084V56.4695H278.163V49.1469H283.612V50.308H279.469V52.2079H283.058V53.2766H279.469V55.3084H283.718Z" fill="#022260"/>
<path d="M284.314 56.4695L287.573 49.1469H288.642L291.874 56.4695H290.489L289.645 54.5696H286.557L285.726 56.4695H284.314ZM288.101 50.7565L286.848 53.4349H289.328L288.101 50.7565Z" fill="#022260"/>
<path d="M292.98 56.4695V49.1469H295.857C296.727 49.1469 297.453 49.314 298.034 49.6483C298.623 49.9737 299.063 50.4135 299.353 50.9676C299.652 51.513 299.802 52.1199 299.802 52.7884C299.802 53.5272 299.639 54.1737 299.313 54.7279C298.988 55.282 298.531 55.713 297.941 56.0209C297.352 56.3199 296.657 56.4695 295.857 56.4695H292.98ZM298.469 52.8016C298.469 52.3002 298.363 51.8648 298.152 51.4954C297.95 51.126 297.655 50.8357 297.268 50.6246C296.89 50.4135 296.42 50.308 295.857 50.308H294.287V55.3084H295.857C296.42 55.3084 296.895 55.2029 297.282 54.9918C297.669 54.7719 297.963 54.4728 298.166 54.0946C298.368 53.7076 298.469 53.2766 298.469 52.8016Z" fill="#022260"/>
<path d="M301.278 56.4695V49.1469H302.584V55.3084H306.569V56.4695H301.278Z" fill="#022260"/>
<path d="M307.733 56.4695V49.1469H309.039V56.4695H307.733Z" fill="#022260"/>
<path d="M312.299 51.5878V56.4695H310.993V49.1469H312.009L316.587 54.1342V49.1469H317.907V56.4695H316.825L312.299 51.5878Z" fill="#022260"/>
<path d="M325.412 55.3084V56.4695H319.858V49.1469H325.307V50.308H321.164V52.2079H324.753V53.2766H321.164V55.3084H325.412Z" fill="#022260"/>
<path d="M331.55 50.994C331.436 50.8885 331.269 50.7785 331.049 50.6642C330.838 50.5498 330.592 50.4531 330.31 50.3739C330.029 50.2948 329.734 50.2552 329.426 50.2552C328.916 50.2552 328.538 50.3343 328.292 50.4927C328.054 50.651 327.935 50.8753 327.935 51.1656C327.935 51.3767 328.006 51.5438 328.146 51.6669C328.287 51.7901 328.498 51.8956 328.78 51.9836C329.07 52.0627 329.431 52.1551 329.862 52.2606C330.389 52.3838 330.847 52.5289 331.234 52.696C331.621 52.8544 331.92 53.0699 332.131 53.3425C332.342 53.6064 332.448 53.9582 332.448 54.398C332.448 54.7851 332.373 55.1149 332.223 55.3876C332.074 55.6603 331.863 55.8845 331.59 56.0605C331.326 56.2276 331.018 56.3507 330.666 56.4299C330.315 56.5091 329.941 56.5486 329.545 56.5486C328.947 56.5486 328.362 56.4651 327.79 56.298C327.227 56.1308 326.721 55.8933 326.273 55.5855L326.867 54.4508C327.016 54.5916 327.223 54.7323 327.487 54.873C327.759 55.0138 328.076 55.1325 328.437 55.2293C328.797 55.326 329.176 55.3744 329.571 55.3744C330.038 55.3744 330.398 55.304 330.653 55.1633C330.908 55.0138 331.036 54.8027 331.036 54.53C331.036 54.3013 330.948 54.121 330.772 53.989C330.605 53.8571 330.363 53.7427 330.046 53.646C329.73 53.5492 329.347 53.4481 328.898 53.3425C328.38 53.2106 327.949 53.0655 327.605 52.9071C327.271 52.74 327.016 52.5333 326.84 52.287C326.664 52.0319 326.576 51.7109 326.576 51.3239C326.576 50.8401 326.704 50.4355 326.959 50.11C327.214 49.7758 327.557 49.5251 327.988 49.358C328.428 49.1821 328.916 49.0941 329.453 49.0941C329.989 49.0941 330.486 49.1733 330.944 49.3316C331.401 49.4899 331.797 49.6878 332.131 49.9253L331.55 50.994Z" fill="#022260"/>
<path d="M242.643 27.5637V27.4521C242.643 19.7487 248.117 13.2734 255.973 13.2734C261.109 13.2734 264.476 15.6923 266.618 19.3765L260.667 24.2144C259.478 22.3909 258.116 21.3489 256.041 21.3489C253.22 21.3489 251.145 24.0655 251.145 27.3776V27.4521C251.145 30.9873 253.185 33.6668 256.109 33.6668C258.184 33.6668 259.511 32.6247 260.872 30.8384L266.721 35.4531C264.408 39.1744 261.109 41.705 255.634 41.705C248.152 41.705 242.643 35.2671 242.643 27.5637Z" fill="#E2100E"/>
<path d="M266.756 27.5636V27.452C266.756 19.6742 272.57 13.199 280.564 13.199C288.521 13.199 294.269 19.5998 294.269 27.3404V27.452C294.269 35.1925 288.488 41.7049 280.461 41.7049C272.502 41.7049 266.756 35.3041 266.756 27.5636ZM285.732 27.5636V27.452C285.732 24.1399 283.521 21.3117 280.428 21.3117C277.265 21.3117 275.223 24.0655 275.223 27.3404V27.452C275.223 30.8012 277.434 33.5923 280.496 33.5923C283.727 33.5923 285.732 30.8385 285.732 27.5636Z" fill="#E2100E"/>
<path d="M295.834 13.7944H304.575V17.5158C306.208 15.2458 308.487 13.199 311.989 13.199C315.288 13.199 317.84 14.7992 319.167 17.6275C321.342 14.9108 323.86 13.199 327.498 13.199C332.804 13.199 336 16.8087 336 23.1724V41.0352H327.259V26.2611C327.259 23.284 325.933 21.721 323.86 21.721C321.818 21.721 320.287 23.284 320.287 26.2611V41.0723H311.547V26.2611C311.547 23.284 310.22 21.721 308.145 21.721C306.072 21.721 304.575 23.284 304.575 26.2611V41.0723H295.834V13.7944Z" fill="#E2100E"/>
<path d="M244.206 38.4676C244.206 39.9934 243.085 41.2216 241.655 41.2216C240.261 41.2216 239.138 39.9563 239.138 38.4676C239.138 36.9418 240.261 35.7139 241.655 35.7139C243.05 35.7139 244.206 36.9418 244.206 38.4676Z" fill="#E2100E"/>
<defs>
<linearGradient id="paint0_linear_308_2404" x1="95.6851" y1="19.4933" x2="119.475" y2="39.4902" gradientUnits="userSpaceOnUse">
<stop stop-color="#1C63EE"/>
<stop offset="0.635623" stop-color="#E2100E"/>
</linearGradient>
</defs>
</svg>
